<?xml version="1.0" encoding="UTF-8" standalone="no"?>
<!--Generator: Xara Xtreme (www.xara.com), SVG filter version: 1.0.0.13-->
<svg xmlns="http://www.w3.org/2000/svg" width="726.58691" height="220.51947" viewBox="0 0 600 450">
  <defs>
  </defs>
  <path style="fill:#ffffff"
     d="M 909.49562,229.54176 C 918.21091,228.11885 950.07383,222.98623 950.07383,222.98623 L 942.1208,193.38472 C 935.84477,172.01573 928.52698,147.36897 920.31986,123.17958 C 920.31986,123.17958 919.91332,121.93454 919.53218,120.74031 C 920.49772,117.3101 936.37836,62.324965 936.37836,62.324965 C 936.35296,62.375783 942.06999,43.573104 942.06999,43.573104 C 942.52735,42.429698 943.06094,38.99948 943.64535,34.730764 C 944.68712,27.00642 939.07172,10.693826 916.53392,7.2890168 C 893.99611,3.9096162 873.82134,1.8260761 849.30164,3.9858432 C 814.05932,7.0349262 784.43239,24.058973 764.94367,51.24663 C 764.94367,32.240679 764.94367,2.9440732 764.94367,2.9440732 L 432.06004,2.8932552 C 432.06004,2.8932552 432.06004,33.993902 432.06004,36.560213 C 408.12473,12.243777 373.49223,0.47939776 332.43125,3.5284808 C 305.09114,5.4849757 279.70752,16.029721 260.65075,32.672633 C 261.74334,28.658007 264.41129,19.205849 264.41129,19.205849 L 236.69004,12.472458 C 236.58841,12.472458 235.74991,12.294595 235.74991,12.294595 C 235.64827,12.243777 211.89083,7.3906528 211.89083,7.3906528 C 194.00288,4.722705 175.04775,2.4867108 155.58443,3.9350252 C 129.66723,5.815293 97.346954,11.506915 77.578732,38.974071 C 69.625707,50.026997 64.772584,64.586368 63.273451,80.644872 L 63.273451,80.594054 C 62.130045,78.967876 34.612071,39.78716 -25.378637,18.621442 C -93.779732,-5.5171321 -150.61973,-6.1269487 -221.61254,16.436266 C -274.81904,33.384085 -317.27752,67.965768 -339.1801,88.496261 C -387.0507,76.833518 -418.63412,79.984237 -432.71072,98.329549 C -438.42775,105.85063 -441.34979,115.65851 -441.34979,127.52452 C -441.34979,151.48523 -429.38214,180.22284 -418.91362,200.95661 C -421.60698,210.5104 -424.55442,225.01895 -424.55442,243.97409 L -424.09706,257.03432 C -422.47088,280.86799 -414.74654,300.96653 -407.80988,314.86527 C -414.79736,322.2847 -418.63412,331.10163 -418.63412,340.83329 C -418.63412,366.11527 -393.47919,384.71468 -358.56719,385.80726 C -327.74604,416.39973 -294.33317,432.61069 -256.3975,434.84668 C -210.71207,437.59086 -176.07957,424.53062 -153.13522,415.86614 C -153.26226,415.91696 -136.39067,410.04747 -136.39067,410.04747 C -113.49714,403.84767 -80.744903,402.39936 -60.443092,404.2034 C -2.2818338,409.41225 23.737008,425.49616 23.991098,425.67402 L 60.122732,449.12655 L 65.941399,406.54103 C 65.966808,406.4648 66.42417,398.35932 66.42417,398.35932 C 66.42417,382.60573 62.384135,350.38708 35.42516,311.63832 C 28.38686,301.55094 18.833066,292.25123 7.0178697,283.91707 C 31.791669,278.53036 55.396653,280.48685 60.402231,281.02044 C 60.402231,288.10956 60.402231,310.62196 60.402231,310.62196 C 60.402231,310.62196 99.176404,310.62196 108.39988,310.62196 C 108.39988,321.52243 108.39988,431.97546 108.39988,431.97546 L 228.20343,431.97546 C 228.20343,431.97546 228.20343,321.77652 228.20343,310.87605 C 235.52123,310.87605 250.20764,310.87605 257.52544,310.87605 C 257.52544,321.77652 257.52544,431.97546 257.52544,431.97546 L 418.1613,431.97546 L 530.03724,432.12792 C 530.03724,432.12792 536.74522,408.49752 538.52385,402.09445 C 543.19911,402.09445 549.27187,402.09445 553.97254,402.09445 C 555.77658,408.49752 562.48456,432.12792 562.48456,432.12792 L 952.05573,431.89923 C 952.05573,431.89923 911.96029,241.15368 909.49562,229.54176 M 615.05583,235.71615 C 626.38826,235.71615 652.73742,235.76697 652.73742,235.76697 C 652.73742,235.76697 663.15512,235.81779 670.57455,235.8432 C 668.33856,246.48958 655.40537,308.03024 649.56129,335.72607 C 640.26159,308.7671 619.12128,247.45512 615.05583,235.71615 M 448.95704,318.16844 C 448.95704,295.27491 448.95704,271.5937 448.95704,271.5937 L 448.70295,271.5937 C 448.70295,271.5937 448.70295,244.55849 448.70295,235.71615 C 453.53066,235.71615 459.12065,235.71615 459.12065,235.71615 C 459.12065,235.71615 469.48753,235.71615 477.41515,235.71615 C 473.95952,245.62567 460.26405,285.41621 448.95704,318.16844 M -10.743039,136.01114 C 12.328356,125.51721 42.336414,123.20499 42.666732,123.20499 C 42.666732,123.20499 59.63996,122.06158 67.72003,121.50259 C 70.896159,130.80229 75.647646,138.67909 82.05072,145.13298 C 80.627815,150.2656 71.455157,183.39897 71.455157,183.39897 C 71.455157,183.44979 69.117527,192.19049 67.46594,198.39029 C 56.997422,183.55142 44.597818,169.9576 29.860583,158.4219 L 29.860583,158.4219 C 17.842114,148.99515 4.1974676,141.55031 -10.743039,136.01114 z" />
  <g style="fill:#004cff">
  <path d="M -228.85411,224.23127 C -245.57325,226.06072 -245.59866,244.88881 -242.49876,268.03643 C -239.42427,291.20946 -231.39502,310.19 -215.71765,308.03024 C -201.59023,305.99752 -200.87878,287.3727 -204.00409,264.22508 C -207.07858,241.07746 -213.96442,222.6305 -228.85411,224.23127 z" />
  <path d="M 64.925038,253.90901 C 64.925038,253.90901 55.981061,213.40703 12.684082,179.51139 C -25.607318,149.55415 -70.65752,152.19669 -70.65752,152.19669 C -70.65752,152.19669 -58.41037,128.64252 -26.420407,112.66024 C 2.57129,98.151689 40.456147,95.687015 40.456147,95.687015 C 40.456147,95.687015 17.460979,62.426601 -34.907022,43.903422 C -97.032088,22.026251 -148.587,21.289389 -213.81197,42.073972 C -280.84098,63.366735 -331.48117,118.30105 -331.48117,118.30105 C -331.48117,118.30105 -399.27244,98.532829 -411.51959,114.54051 C -425.64701,133.01287 -389.8457,198.33948 -389.8457,198.33948 C -389.8457,198.33948 -399.83144,219.09865 -397.39218,254.84915 C -394.67341,294.56345 -371.04302,323.58056 -371.04302,323.58056 C -371.04302,323.58056 -370.96679,323.80924 -370.81434,324.16497 C -383.21394,327.01078 -391.85301,333.23599 -391.85301,340.47756 C -391.85301,350.41249 -375.74369,358.44174 -355.92465,358.44174 C -353.15506,358.44174 -350.48712,358.26388 -347.8954,357.98438 C -347.76835,358.11143 -347.64131,358.26388 -347.51426,358.39093 C -328.66076,379.09928 -299.00843,404.73699 -255.22868,407.37953 C -202.45414,410.50484 -166.77987,389.64403 -144.3437,383.57127 C -117.25768,376.22806 -80.922766,374.75434 -58.41037,376.76165 C 9.6095897,382.88523 38.55047,402.62804 38.55047,402.62804 C 38.55047,402.62804 42.793777,370.1553 12.684082,326.85833 C -8.4308178,296.57077 -54.649834,283.9933 -54.649834,283.9933 C -54.649834,283.9933 -31.273531,264.5808 -2.8662414,257.66955 C 31.969532,249.15753 64.925038,253.90901 64.925038,253.90901 M -371.62742,300.45835 C -375.59123,291.10783 -380.11404,277.41236 -380.5714,244.91422 C -380.8509,226.11154 -376.37891,206.31791 -368.80702,204.18355 C -356.71233,200.77874 -355.92465,222.09692 -351.19857,237.13906 C -348.91176,244.53308 -345.98972,252.7402 -342.48327,259.98177 C -343.62668,259.67686 -344.74468,259.57523 -345.81186,259.85473 C -353.33293,261.83663 -355.36565,278.9369 -350.28384,297.99367 C -347.03149,310.31705 -341.56855,320.40443 -336.10561,325.48624 C -341.79723,323.60597 -348.60685,322.51338 -355.92465,322.51338 C -357.24592,322.51338 -358.51637,322.64043 -359.83764,322.71665 C -363.14081,317.81271 -367.38412,310.57114 -371.62742,300.45835 M -194.24702,301.19521 C -206.49417,328.4845 -231.3442,339.30875 -256.3975,338.80057 C -280.84098,338.39402 -298.98302,324.03792 -324.92564,327.44273 C -319.58974,322.51338 -318.6242,307.39501 -323.01996,290.80292 C -324.13796,286.5342 -325.53545,282.5958 -327.11081,279.01313 C -318.21765,283.40889 -312.88176,276.44682 -312.88176,276.44682 C -312.88176,276.44682 -310.54413,233.63261 -295.93394,204.18355 C -284.72856,181.56952 -267.14551,163.45289 -241.81272,159.71776 C -217.80119,156.1859 -201.76809,171.25346 -192.34134,197.60261 C -182.96541,223.97718 -181.99987,273.88051 -194.24702,301.19521 z" />
  <path d="M 851.25813,30.741547 C 872.75417,28.83587 890.84539,30.411229 915.54296,35.493034 C 909.82593,54.981757 903.19418,74.44507 898.08696,95.02638 C 869.09527,56.658752 802.34576,124.3484 839.36671,149.75742 C 850.77536,157.63422 869.17149,155.14413 879.08101,147.39438 C 884.62018,142.99862 889.85444,137.15454 894.12316,131.53915 C 901.8475,154.40727 908.63171,177.04671 915.54296,200.60088 C 891.81093,203.77701 863.07333,211.9079 836.19058,206.14005 C 738.49288,185.07597 749.77448,39.583887 851.25813,30.741547 z" />
  <path d="M 157.1852,30.716138 C 174.9207,29.420277 193.16438,31.808726 207.19016,33.892266 C 215.29564,35.061081 231.93855,39.101116 230.18533,38.669163 C 226.32316,51.780219 222.63885,64.916685 219.08159,78.35806 C 207.54589,76.655655 160.31051,71.446805 154.79676,79.933419 C 152.86567,82.830048 153.45008,88.77576 153.98367,92.764977 C 156.54998,101.37864 200.91414,98.482009 215.90546,109.40789 C 224.26503,115.48065 230.41401,124.52626 232.54837,137.20536 C 239.56126,178.29176 211.58593,205.22532 176.21656,207.84245 C 156.34671,209.31618 136.78176,207.71541 118.28399,206.26709 C 110.38178,205.65728 104.2328,204.64091 94.450325,203.09096 C 94.450325,203.04015 101.86976,173.56568 105.55406,160.22594 C 118.69053,162.15703 160.64083,165.89215 167.50127,157.04981 C 169.0004,154.99168 171.43967,149.85906 168.28895,146.70834 C 162.59733,141.04213 153.8058,142.13471 145.52246,141.04213 C 115.20949,137.20536 92.824147,133.69892 89.698837,98.304149 C 88.123477,80.873553 91.807786,64.78964 99.227224,54.524394 C 110.94078,38.288027 130.93768,32.647224 157.1852,30.716138 z" />
  <path d="M 458.84115,29.826822 L 530.57083,29.903049 L 577.90784,124.14512 L 577.90784,29.826822 L 632.30856,29.826822 L 632.30856,208.17277 L 556.81835,208.17277 C 556.81835,208.17277 527.47092,151.02787 514.05496,124.14512 C 514.05496,152.55241 514.05496,208.17277 514.05496,208.17277 C 514.05496,208.17277 476.85615,208.17277 458.68869,208.17277 C 458.68869,190.08154 458.84115,124.50085 458.84115,87.861035 C 458.84115,76.071247 458.84115,29.826822 458.84115,29.826822 z" />
  <path d="M 430.96745,85.11686 C 418.18671,49.899952 385.91725,26.49824 334.03202,30.284184 C 302.14369,32.596406 274.93063,49.798316 262.30234,71.726304 C 251.93546,89.588849 245.40534,117.53878 252.03709,143.45598 C 274.39704,230.88844 412.11395,229.74503 433.33049,140.30526 C 437.42134,123.15417 436.63366,100.69259 430.96745,85.11686 M 380.53053,116.64946 C 377.73554,132.58092 357.25587,152.62864 341.12114,155.27118 C 327.70517,157.48176 318.55792,153.94991 311.92617,147.39438 C 288.44823,124.0689 326.1044,86.082403 348.18484,82.77923 C 368.23257,79.730147 384.03698,96.449285 380.53053,116.64946 z" />
  <path d="M 737.29865,208.35063 L 737.29865,29.826822 L 673.47118,29.826822 L 673.47118,208.35063 L 737.29865,208.35063 z" />
  <path d="M 135.18099,283.05317 L 87.157935,283.05317 L 87.157935,226.72136 L 250.3601,226.72136 L 250.3601,283.30726 L 200.55841,283.30726 L 200.55841,404.40667 L 135.18099,404.40667 L 135.18099,283.05317 z" />
  <path d="M 421.08334,226.72136 L 284.28115,226.72136 L 284.28115,404.40667 L 421.33743,404.40667 L 421.33743,358.56879 L 349.78561,358.56879 L 349.78561,337.73339 L 421.33743,337.73339 L 421.33743,292.40369 L 349.78561,292.40369 L 349.78561,272.30515 L 421.08334,272.30515 L 421.08334,226.72136 z" />
  <path d="M 582.93883,226.87381 L 545.84165,226.87381 L 545.74001,226.87381 L 508.69366,226.87381 L 447.38168,404.53371 L 509.04938,404.53371 L 517.536,374.55107 L 545.74001,374.55107 L 545.84165,374.55107 L 574.07108,374.55107 L 582.5831,404.53371 L 644.2508,404.53371 L 582.93883,226.87381 M 545.84165,320.04871 L 545.74001,320.04871 L 530.13887,320.04871 L 545.79083,276.34518 L 561.49361,320.04871 L 545.84165,320.04871 z" />
  <path d="M 880.7326,226.64513 L 810.9086,226.64513 L 790.27647,306.63274 L 769.59352,226.64513 L 699.82034,226.64513 L 662.44367,404.35585 L 720.17297,404.35585 L 737.01915,313.34072 L 757.34637,404.35585 L 790.27647,404.35585 L 823.15575,404.35585 L 843.50838,313.34072 L 860.37997,404.35585 L 918.08387,404.35585 L 880.7326,226.64513 z" />
  </g>
  <g style="fill:#000000">
  <path d="M 970.04532,70.836988 L 970.04532,36.534804 L 957.8744,36.534804 L 957.8744,29.547323 L 990.525,29.547323 L 990.525,36.534804 L 978.37948,36.534804 L 978.37948,70.836988 L 970.04532,70.836988 z" />
  <path d="M 998.78294,70.836988 L 998.78294,29.547323 L 1011.2587,29.547323 L 1018.6782,57.700522 L 1026.0214,29.547323 L 1038.4718,29.547323 L 1038.4718,70.836988 L 1030.7983,70.836988 L 1030.7729,38.338845 L 1022.642,70.836988 L 1014.6127,70.836988 L 1006.5072,38.338845 L 1006.4818,70.836988 L 998.78294,70.836988 z" />
  </g>
</svg>
